Coordinates
version=1
nRows=24
nColumns=22
inDegrees=yes

Units are S.I. units (second, meters, Newtons, ...)
If the header above contains a line with 'inDegrees', this indicates whether rotational values are in degrees (yes) or radians (no).

endheader
time	pelvis_tilt	pelvis_list	pelvis_rotation	pelvis_tx	pelvis_ty	pelvis_tz	hip_flexion_r	hip_adduction_r	hip_rotation_r	knee_angle_r	ankle_angle_r	subtalar_angle_r	hip_flexion_l	hip_adduction_l	hip_rotation_l	knee_angle_l	ankle_angle_l	subtalar_angle_l	lumbar_extension	lumbar_bending	lumbar_rotation
      0.01000000	     -2.83944388	     -3.50556572	     -2.85397759	      0.21452448	      0.91836526	      1.28296144	     -6.89869723	      7.01496144	     -7.79640636	     -9.45272131	     17.89687330	      0.05137192	     34.60055090	     -3.96824900	     -2.97802576	    -35.26639931	      4.20294211	     -2.76213641	    -11.76867188	     -1.05559514	      1.36562731
      0.02000000	     -2.96477272	     -3.55619753	     -2.86706874	      0.21853243	      0.91721153	      1.28269926	     -7.02642593	      7.02606423	     -7.79126765	     -9.49625248	     18.08355626	      0.15801291	     34.66811231	     -4.00077776	     -3.44782091	    -33.56355434	      4.24327799	     -2.81042799	    -11.62890992	     -1.00666471	      1.44923747
      0.03000000	     -3.09025357	     -3.63417160	     -2.90516951	      0.22329367	      0.91585864	      1.28242159	     -7.21230788	      7.05627513	     -7.71787913	     -9.53677659	     18.32939453	      0.33193784	     34.71041343	     -4.07838790	     -4.09461641	    -31.61860516	      4.27079326	     -2.83631495	    -11.48884200	     -0.93525015	      1.58978954
      0.04000000	     -3.22750625	     -3.73422203	     -2.96311805	      0.22865671	      0.91431197	      1.28211567	     -7.42188390	      7.09954198	     -7.61685610	     -9.59534719	     18.58954930	      0.53736626	     34.74798889	     -4.19350248	     -4.93295642	    -29.54687757	      4.30202125	     -2.81508739	    -11.32868718	     -0.84303457	      1.76357670
      0.05000000	     -3.37749321	     -3.84630032	     -3.04133506	      0.23446165	      0.91260289	      1.28179493	     -7.63920266	      7.14631704	     -7.48168667	     -9.67799210	     18.86365439	      0.75284611	     34.79604863	     -4.34468442	     -6.01133158	    -27.46676880	      4.34011458	     -2.74175607	    -11.14828464	     -0.74259822	      1.95506849
      0.06000000	     -3.50582180	     -3.95852215	     -3.13188732	      0.24061905	      0.91082795	      1.28144136	     -7.90736231	      7.18368676	     -7.31847800	     -9.75943813	     19.12526589	      1.02725958	     34.82175486	     -4.51221837	     -7.33675942	    -25.47233554	      4.40433660	     -2.59771320	    -10.98339163	     -0.64783605	      2.13576300
      0.07000000	     -3.69124396	     -4.08181032	     -3.24962676	      0.24698604	      0.90887665	      1.28108722	     -8.10530666	      7.22453813	     -7.14878993	     -9.89128859	     19.40150055	      1.20331098	     34.94571964	     -4.72061033	     -8.92167248	    -23.68360068	      4.48619895	     -2.48477548	    -10.74096772	     -0.54468277	      2.35530301
      0.08000000	     -3.84167466	     -4.19640395	     -3.37028132	      0.25355587	      0.90694001	      1.28068682	     -8.36094980	      7.24759175	     -6.96289160	    -10.01332252	     19.66267414	      1.41537645	     35.06133210	     -4.93493174	    -10.76352329	    -22.14019814	      4.60858087	     -2.36052581	    -10.53258314	     -0.45678321	      2.53755226
      0.09000000	     -3.95888041	     -4.29740609	     -3.48530384	      0.26028561	      0.90503870	      1.28022935	     -8.66629985	      7.24864603	     -6.75733385	    -10.13031265	     19.89864810	      1.66521627	     35.17159094	     -5.14280135	    -12.81473656	    -20.87201021	      4.76686112	     -2.26167310	    -10.35621579	     -0.38882607	      2.66373932
      0.10000000	     -4.08105681	     -4.40690573	     -3.59914770	      0.26716871	      0.90311841	      1.27972227	     -8.97550185	      7.24991196	     -6.61045982	    -10.24823477	     20.09327940	      1.88470561	     35.32978648	     -5.37153698	    -15.02134319	    -19.92619885	      4.97649593	     -2.23059449	    -10.16431813	     -0.31712942	      2.81955807
      0.11000000	     -4.13506530	     -4.48704599	     -3.70317788	      0.27424453	      0.90133932	      1.27914656	     -9.39213684	      7.21170095	     -6.41240063	    -10.32121661	     20.25279393	      2.19997022	     35.41559522	     -5.56900090	    -17.31785335	    -19.24619309	      5.19923000	     -2.31883708	    -10.04259302	     -0.28723199	      2.91314512
      0.12000000	     -4.18558148	     -4.58595642	     -3.80712917	      0.28146807	      0.89957684	      1.27852410	     -9.80649262	      7.18280774	     -6.24819711	    -10.42311281	     20.35029295	      2.48292357	     35.52713946	     -5.79898853	    -19.61521910	    -18.88760765	      5.46707769	     -2.50516734	     -9.92139238	     -0.24224861	      3.00872734
      0.13000000	     -4.23442007	     -4.69347685	     -3.92708595	      0.28890647	      0.89785087	      1.27787915	    -10.23330769	      7.15368569	     -6.03517209	    -10.53122969	     20.40991405	      2.73373256	     35.63437248	     -6.05379787	    -21.81650203	    -18.80716768	      5.75464068	     -2.72634665	     -9.78610485	     -0.19421398	      3.11028877
      0.14000000	     -4.24379828	     -4.79648590	     -4.04123717	      0.29660584	      0.89623932	      1.27718070	    -10.72290998	      7.10967835	     -5.82479309	    -10.62423166	     20.39214231	      3.02631245	     35.68092711	     -6.30254865	    -23.82778727	    -18.96664484	      6.01693519	     -3.07505334	     -9.67910889	     -0.16313028	      3.21095876
      0.15000000	     -4.22561053	     -4.89823867	     -4.15719195	      0.30458054	      0.89474177	      1.27644618	    -11.24342809	      7.05257060	     -5.62126571	    -10.73971995	     20.28959012	      3.36691922	     35.66501025	     -6.54350887	    -25.56050160	    -19.32439460	      6.24096564	     -3.59359530	     -9.58409979	     -0.14823362	      3.32481555
      0.16000000	     -4.22046491	     -4.99288835	     -4.29092301	      0.31284039	      0.89331141	      1.27568738	    -11.74845286	      6.97926780	     -5.34962856	    -10.88468906	     20.12262552	      3.67903780	     35.62931439	     -6.77491332	    -26.96484493	    -19.85787497	      6.39425571	     -4.16080652	     -9.44755011	     -0.14791695	      3.44096396
      0.17000000	     -4.22143092	     -5.06608693	     -4.43754761	      0.32140650	      0.89199294	      1.27491335	    -12.24539221	      6.87843477	     -5.00162935	    -11.05665174	     19.88349092	      3.98820150	     35.55721266	     -6.96930919	    -28.01707461	    -20.51027159	      6.45222835	     -4.84640116	     -9.27331349	     -0.18593963	      3.54471112
      0.18000000	     -4.22513821	     -5.11217486	     -4.57595786	      0.33028099	      0.89081283	      1.27406861	    -12.72009041	      6.74222075	     -4.65733363	    -11.28216833	     19.54802468	      4.31192287	     35.46340409	     -7.10657236	    -28.71037186	    -21.26377491	      6.39811373	     -5.77774915	     -9.06514026	     -0.26538606	      3.65362114
      0.19000000	     -4.24932096	     -5.12338203	     -4.72096404	      0.33944764	      0.88979182	      1.27320436	    -13.15507064	      6.56593285	     -4.27988449	    -11.55260329	     19.11920289	      4.62118293	     35.37507418	     -7.19063924	    -29.08111283	    -22.08574498	      6.20998706	     -6.90868329	     -8.80086538	     -0.39914065	      3.74117791
      0.20000000	     -4.29655982	     -5.09327999	     -4.84439336	      0.34886585	      0.88896299	      1.27227843	    -13.53536049	      6.34716385	     -3.92692943	    -11.87866922	     18.57634971	      4.92862097	     35.31450912	     -7.20106124	    -29.14843435	    -22.94786239	      5.86266610	     -8.29587547	     -8.48260250	     -0.59539168	      3.81184087
      0.21000000	     -4.36847292	     -5.02732994	     -4.95303019	      0.35849849	      0.88835485	      1.27133053	    -13.86219325	      6.09703683	     -3.53619345	    -12.25034014	     17.92445045	      5.24628356	     35.30401807	     -7.16663677	    -28.99434561	    -23.86519396	      5.43988149	     -9.80813088	     -8.11283375	     -0.84934445	      3.82587267
      0.22000000	     -4.45544941	     -4.92248370	     -5.01853441	      0.36832502	      0.88799730	      1.27030682	    -14.13674584	      5.81113937	     -3.22310954	    -12.67459053	     17.15109660	      5.58515777	     35.34620196	     -7.07007594	    -28.62378345	    -24.83385605	      4.94544159	    -11.37244094	     -7.70692398	     -1.16307214	      3.80254008
      0.23000000	     -4.54076891	     -4.76400305	     -5.04240795	      0.37836352	      0.88792511	      1.26922314	    -14.38132754	      5.47420186	     -2.97219485	    -13.13901138	     16.26250018	      5.96166171	     35.41452687	     -6.90499982	    -28.11111095	    -25.85014921	      4.46134559	    -12.84961948	     -7.27752659	     -1.56005584	      3.74569021
      0.24000000	     -4.60265761	     -4.59341547	     -5.00173474	      0.38859102	      0.88815638	      1.26802116	    -14.61579595	      5.13370722	     -2.77016306	    -13.65182724	     15.20703314	      6.42650443	     35.48760275	     -6.69005399	    -27.42572726	    -26.91759642	      4.04551744	    -14.06497240	     -6.86232804	     -1.98282174	      3.63902730
